#!OML:ASF F:\VICON\USERDATA\INSTALL\rory3\rory3.ASF
:FULLY-SPECIFIED
:DEGREES
340
root 9.09019 15.7275 -6.90319 -171.737 52.6379 -167.566
lowerback 8.26789 0.984372 5.77864
upperback -0.489094 2.05496 2.01079
thorax -5.03291 0.91671 -1.40474
lowerneck -11.1801 -8.45125 -13.3891
upperneck 21.8962 -10.7447 9.20679
head 10.0574 -4.9925 4.11094
rclavicle -1.03439e-013 2.5842e-015
rhumerus -33.8466 4.1218 -86.5658
rradius 36.0311
rwrist 3.53584
rhand -17.3384 11.5061
rfingers 7.12502
rthumb 8.90881 -18.2858
lclavicle -1.03439e-013 2.5842e-015
lhumerus -36.9408 11.1246 79.6688
lradius 27.4267
lwrist -0.557467
lhand -10.9134 13.0376
lfingers 7.12502
lthumb 15.104 42.4665
rfemur 10.1705 3.563 36.0719
rtibia 16.0486
rfoot -15.1397 -15.803
rtoes -4.74308
lfemur -27.836 -10.3958 -9.21052
ltibia 25.094
lfoot -17.4348 19.1637
ltoes -7.87955
341
root 9.16883 15.7196 -6.99126 -171.805 52.7676 -167.677
lowerback 8.24773 1.01323 5.73941
upperback -0.506277 2.08657 1.99304
thorax -5.03802 0.932148 -1.40477
lowerneck -11.2108 -8.47673 -13.4522
upperneck 21.9069 -10.78 9.26688
head 10.0794 -5.00699 4.13651
rclavicle -1.94623e-014 -1.59028e-015
rhumerus -34.0182 4.28707 -86.6879
rradius 36.0408
rwrist 3.27421
rhand -17.303 12.1851
rfingers 7.12502
rthumb 8.94298 -17.6054
lclavicle -1.94623e-014 -1.59028e-015
lhumerus -36.9622 11.0722 79.6502
lradius 27.1699
lwrist -0.311354
lhand -11.2431 12.842
lfingers 7.12502
lthumb 14.7863 42.2946
rfemur 10.6061 3.69154 35.8461
rtibia 16.1788
rfoot -15.6963 -15.1392
rtoes -1.22767
lfemur -27.6797 -10.4234 -9.38695
ltibia 25.2867
lfoot -17.2959 19.2967
ltoes -7.61697
342
root 9.24864 15.7093 -7.08101 -171.966 52.9102 -167.881
lowerback 8.2035 1.03104 5.59129
upperback -0.499527 2.09071 1.99346
thorax -5.01032 0.938498 -1.32097
lowerneck -11.2454 -8.47833 -13.5164
upperneck 21.9093 -10.7725 9.29334
head 10.0917 -5.00566 4.15631
rclavicle 9.60099e-014 9.64106e-015
rhumerus -34.0751 4.39572 -86.7343
rradius 35.8952
rwrist 3.19145
rhand -16.8537 12.4546
rfingers 7.12502
rthumb 9.37651 -17.3169
lclavicle 9.60099e-014 9.64106e-015
lhumerus -36.9996 11.4922 79.3932
lradius 26.9054
lwrist -0.997607
lhand -11.0245 12.9246
lfingers 7.12502
lthumb 14.9969 42.3616
rfemur 10.9883 3.71724 35.5352
rtibia 16.409
rfoot -15.9682 -14.5687
rtoes 0.611473
lfemur -27.4247 -10.4475 -9.66553
ltibia 25.4708
lfoot -16.9347 19.3742
ltoes -7.56291
343
root 9.33193 15.6995 -7.17288 -172.034 53.0343 -167.987
lowerback 8.09856 1.08088 5.52291
upperback -0.499662 2.14082 1.98564
thorax -4.94989 0.96607 -1.29407
lowerneck -11.2608 -8.48674 -13.4683
upperneck 21.9254 -10.7833 9.25225
head 10.0962 -5.0101 4.13184
rclavicle 7.92343e-015 -7.05686e-015
rhumerus -34.1092 4.14731 -86.7048
rradius 35.6443
rwrist 3.36156
rhand -16.6438 12.5636
rfingers 7.12502
rthumb 9.57905 -17.1986
lclavicle 7.92343e-015 -7.05686e-015
lhumerus -36.9574 11.7959 79.1252
lradius 26.5355
lwrist -1.68659
lhand -10.4229 13.1894
lfingers 7.12502
lthumb 15.5763 42.5822
rfemur 11.2779 3.57512 35.2865
rtibia 16.7229
rfoot -15.7767 -14.3357
rtoes -0.760132
lfemur -27.1357 -10.5144 -9.87224
ltibia 25.6565
lfoot -16.4879 19.34
ltoes -8.11143
344
root 9.41684 15.6914 -7.26712 -172.206 53.1564 -168.186
lowerback 7.97729 1.14112 5.42763
upperback -0.464698 2.19641 1.94007
thorax -4.84248 0.997816 -1.29096
lowerneck -11.3536 -8.52395 -13.3798
upperneck 21.9503 -10.8398 9.22464
head 10.1227 -5.02917 4.09625
rclavicle -5.04385e-014 -1.63997e-014
rhumerus -34.0885 3.7494 -86.6749
rradius 35.3376
rwrist 3.58284
rhand -16.8668 12.2309
rfingers 7.12502
rthumb 9.36386 -17.5411
lclavicle -5.04385e-014 -1.63997e-014
lhumerus -36.8803 11.8402 78.9863
lradius 26.2037
lwrist -1.79874
lhand -10.0863 13.4691
lfingers 7.12502
lthumb 15.9005 42.8363
rfemur 11.6613 3.66159 35.0504
rtibia 16.961
rfoot -15.5713 -14.3083
rtoes -2.31655
lfemur -26.8444 -10.7042 -10.1191
ltibia 25.9358
lfoot -16.1918 19.2371
ltoes -8.80021
345
root 9.49992 15.6862 -7.36355 -172.327 53.245 -168.256
lowerback 7.94488 1.14156 5.44313
upperback -0.447401 2.19381 1.92171
thorax -4.80487 0.996945 -1.31724
lowerneck -11.3585 -8.5283 -13.3606
upperneck 21.9181 -10.8489 9.22134
head 10.1117 -5.03286 4.08987
rclavicle 3.09825e-014 1.49089e-014
rhumerus -34.2119 3.66491 -86.7738
rradius 35.2125
rwrist 3.55763
rhand -17.3499 11.6641
rfingers 7.12502
rthumb 8.8977 -18.1283
lclavicle 3.09825e-014 1.49089e-014
lhumerus -36.914 12.1757 78.7087
lradius 25.8977
lwrist -2.11923
lhand -9.97081 13.653
lfingers 7.12502
lthumb 16.0118 43.0113
rfemur 12.1619 3.57558 34.8998
rtibia 17.0474
rfoot -14.8558 -14.5959
rtoes -7.48601
lfemur -26.5818 -10.7786 -10.3474
ltibia 26.3447
lfoot -15.7237 19.0842
ltoes -8.03732
346
root 9.58472 15.6881 -7.46617 -172.438 53.3687 -168.338
lowerback 7.88917 1.17247 5.46345
upperback -0.470777 2.23226 1.90705
thorax -4.79423 1.01479 -1.3469
lowerneck -11.3091 -8.55616 -13.5057
upperneck 21.9459 -10.896 9.35734
head 10.1363 -5.05243 4.15733
rclavicle -8.08386e-014 -1.20265e-014
rhumerus -34.5035 3.64679 -86.8312
rradius 35.2574
rwrist 3.52611
rhand -17.3932 11.3779
rfingers 7.12502
rthumb 8.85588 -18.4163
lclavicle -8.08386e-014 -1.20265e-014
lhumerus -37.0122 12.6798 78.3561
lradius 25.5474
lwrist -2.75025
lhand -9.99554 13.6467
lfingers 7.12502
lthumb 15.9879 43.0069
rfemur 12.7084 3.37339 34.5937
rtibia 17.0663
rfoot -14.5847 -14.1601
rtoes -8.77859
lfemur -26.3019 -10.5159 -10.7285
ltibia 26.8084
lfoot -14.5729 18.8507
ltoes -6.79633
347
root 9.67059 15.693 -7.57141 -172.657 53.4605 -168.607
lowerback 7.77791 1.23093 5.39703
upperback -0.503671 2.29202 1.85882
thorax -4.76239 1.04456 -1.36385
lowerneck -11.2275 -8.61329 -13.6671
upperneck 21.9539 -10.9914 9.52463
head 10.1572 -5.09321 4.23223
rclavicle 5.36229e-014 -2.50469e-014
rhumerus -34.8006 3.46692 -86.8007
rradius 35.1989
rwrist 3.58648
rhand -17.1443 11.2537
rfingers 7.12502
rthumb 9.09611 -18.5301
lclavicle 5.36229e-014 -2.50469e-014
lhumerus -37.047 13.0084 78.1001
lradius 25.1908
lwrist -3.20124
lhand -10.0841 13.5251
lfingers 7.12502
lthumb 15.9027 42.8921
rfemur 13.2249 3.47017 34.1548
rtibia 17.1365
rfoot -15.2634 -12.9259
rtoes -2.63747
lfemur -26.1088 -10.1774 -11.2574
ltibia 27.2706
lfoot -12.8333 18.4044
ltoes -7.14065
348
root 9.7559 15.7009 -7.67883 -172.892 53.4925 -168.892
lowerback 7.64504 1.24219 5.37317
upperback -0.532553 2.28914 1.7792
thorax -4.7151 1.04211 -1.42931
lowerneck -11.1536 -8.64015 -13.608
upperneck 21.9629 -11.0542 9.54709
head 10.1521 -5.11542 4.22414
rclavicle -9.23036e-014 -8.05078e-015
rhumerus -35.058 3.10427 -86.7437
rradius 34.9362
rwrist 3.97997
rhand -16.9475 11.2105
rfingers 7.12502
rthumb 9.28602 -18.565
lclavicle -9.23036e-014 -8.05078e-015
lhumerus -37.0784 13.25 77.7909
lradius 24.8182
lwrist -3.55877
lhand -10.0643 13.3715
lfingers 7.12502
lthumb 15.9218 42.737
rfemur 13.6206 3.55572 33.7731
rtibia 17.3588
rfoot -15.4728 -12.2014
rtoes 0.593804
lfemur -26.0432 -10.274 -11.6259
ltibia 27.6969
lfoot -11.336 17.8943
ltoes -8.44172
349
root 9.84315 15.7159 -7.78625 -173.365 53.5772 -169.434
lowerback 7.55406 1.25701 5.18016
upperback -0.57226 2.27376 1.64217
thorax -4.70707 1.03468 -1.46003
lowerneck -11.1051 -8.66073 -13.5201
upperneck 22.0448 -11.1097 9.55679
head 10.1743 -5.13085 4.20834
rclavicle -1.68307e-014 1.51076e-014
rhumerus -35.2586 2.66095 -86.7138
rradius 34.5058
rwrist 4.51032
rhand -17.0633 11.4847
rfingers 7.12502
rthumb 9.17431 -18.2958
lclavicle -1.68307e-014 1.51076e-014
lhumerus -37.1114 13.4763 77.4337
lradius 24.3429
lwrist -3.95608
lhand -10.0799 13.3179
lfingers 7.12502
lthumb 15.9067 42.6847
rfemur 13.852 3.24048 33.1535
rtibia 17.8657
rfoot -14.7828 -12.107
rtoes -2.59821
lfemur -25.847 -10.6282 -12.0586
ltibia 28.0181
lfoot -10.4839 17.4805
ltoes -7.96924
